<!-- Generator: Adobe Illustrator 21.1.0, SVG Export Plug-In . SVG Version: 6.00 Build 0)  -->
<svg version="1.1" id="svg-heart-icon" xmlns="http://www.w3.org/2000/svg" xmlns:xlink="http://www.w3.org/1999/xlink" x="0px" y="0px"
  viewBox="0 0 60 60" width="37" height="32" transform="translate(12,15)" preserveAspectRatio="none" >
<path class="aside-bar__svg-icon aside-bar__svg-icon--color-current" d="M58.4,9.5c-2.3-4.7-4.8-6.5-7.2-7.8c-2.4-1.3-6.5-2.1-10.5-0.5c-5.4,2.1-10.4,10.1-10.4,10.1S25.2,3.3,19.8,1.1
  c-4-1.6-8.1-0.8-10.5,0.5C7,2.9,4.5,4.8,2.1,9.5c0,0-2.8,5.1-1.5,12.9c0,0,0.4,3.9,3.2,8.2c2.7,4.2,20.7,27,20.7,27s2.2,2.7,5.8,2.7
  s5.8-3.1,5.8-3.1s18-22.4,20.7-26.6c2.7-4.2,3.2-8.2,3.2-8.2C61.2,14.5,58.4,9.5,58.4,9.5z"/>
</svg>