<?xml version="1.0" encoding="utf-8"?>
<!-- Generator: Adobe Illustrator 21.1.0, SVG Export Plug-In . SVG Version: 6.00 Build 0)  -->
<svg version="1.1" id="svg-woman-icon" xmlns="http://www.w3.org/2000/svg" xmlns:xlink="http://www.w3.org/1999/xlink" x="0px" y="0px"
	 viewBox="0 0 45.7 57.1" style="enable-background:new 0 0 45.7 57.1;">
<g>
	<path d="M40.7,40.1c-0.1-0.3-0.1-0.7-0.2-1c-0.7-3.9-1.9-10.2-6.4-13.6c0.3-2.2,0.5-5.6,0.5-10.7C34.6,6.6,29.4,0,22.8,0
		c-4.4,0-7.3,3.1-7.3,3.1c-2.7,2.7-4.5,6.9-4.5,11.6c0,5.1,0.2,8.5,0.5,10.7C7,28.8,5.9,35.1,5.2,39.1c-0.1,0.3-0.1,0.7-0.2,1
		c-0.3,1.8,0.9,3.5,2.7,3.9c0.2,0,0.4,0,0.6,0L20,44l0,0l17.5,0c0.2,0,0.4,0,0.6,0C39.8,43.6,41,41.9,40.7,40.1z M22.9,32.4
		l-6.2-3.2l3.2-5.1c0.9,0.4,2,0.7,3,0.7c1,0,2.1-0.3,3-0.7l3.2,5.1L22.9,32.4z M22.8,22.7c-5.9,0-8.5-8-8-10.5
		c6.5-5.7,12.3-5.3,12.3-5.3s1,3.2,3.7,7.1C30.4,17.8,26.5,22.7,22.8,22.7z"/>
</g>
</svg>
